<?xml version="1.0" encoding="UTF-8"?>
<!DOCTYPE svg PUBLIC "-//W3C//DTD SVG 1.0//EN" "http://www.w3.org/TR/2001/REC-SVG-20010904/DTD/svg10.dtd">
<!-- Creator: CorelDRAW X7 -->
<svg xmlns="http://www.w3.org/2000/svg" xml:space="preserve" width="32.9306in" height="2.65109in" version="1.0" style="shape-rendering:geometricPrecision; text-rendering:geometricPrecision; image-rendering:optimizeQuality; fill-rule:evenodd; clip-rule:evenodd"
viewBox="0 0 8522 686"
 xmlns:xlink="http://www.w3.org/1999/xlink">
 <defs>
  <style type="text/css">
   <![CDATA[
    .fil0 {fill:#FEFEFE;fill-opacity:0.458824}
    .fil1 {fill:#FEFEFE}
   ]]>
  </style>
 </defs>
 <g id="Layer_x0020_1">
  <metadata id="CorelCorpID_0Corel-Layer"/>
  <g id="_1970756234224">
   <path class="fil0" d="M8522 529c0,-1 -2297,-417 -3062,-167 -1191,432 -2046,-659 -2903,-189 -856,470 -1227,535 -1724,434 -496,-101 -544,-241 -763,-307l-20 -273 6874 11 1597 46 1 445z"/>
   <path class="fil1" d="M8521 302c0,0 -721,-108 -1486,142 -1191,432 -1911,-731 -2767,-261 -857,470 -1543,598 -2156,437 -612,-162 -1408,-644 -2112,-287l0 -333 8521 0 0 302z"/>
  </g>
 </g>
</svg>
