<?xml version="1.0" encoding="UTF-8"?>
<!DOCTYPE svg PUBLIC "-//W3C//DTD SVG 1.0//EN" "http://www.w3.org/TR/2001/REC-SVG-20010904/DTD/svg10.dtd">
<!-- Creator: CorelDRAW X7 -->
<svg xmlns="http://www.w3.org/2000/svg" xml:space="preserve" width="29.7432in" height="2.90313in" version="1.0" style="shape-rendering:geometricPrecision; text-rendering:geometricPrecision; image-rendering:optimizeQuality; fill-rule:evenodd; clip-rule:evenodd"
viewBox="0 0 7101 693"
 xmlns:xlink="http://www.w3.org/1999/xlink">
 <defs>
  <style type="text/css">
   <![CDATA[
    .fil0 {fill:#FEFEFE;fill-opacity:0.458824}
    .fil1 {fill:#F8F9FA}
   ]]>
  </style>
 </defs>
 <g id="Layer_x0020_1">
  <metadata id="CorelCorpID_0Corel-Layer"/>
  <g id="_1970691219664">
   <path class="fil0" d="M0 467c0,0 1921,234 2547,-13 972,-420 1740,447 2431,12 691,-435 997,-507 1416,-448 420,59 522,206 707,250l0 415 -7101 1 0 -217z"/>
   <path class="fil1" d="M0 657c0,0 603,54 1229,-192 972,-420 1631,514 2322,79 690,-435 1257,-576 1776,-473 519,104 1205,466 1774,134l0 488 -7101 0 0 -36z"/>
  </g>
 </g>
</svg>
