<?xml version="1.0" encoding="UTF-8"?>
<!DOCTYPE svg PUBLIC "-//W3C//DTD SVG 1.0//EN" "http://www.w3.org/TR/2001/REC-SVG-20010904/DTD/svg10.dtd">
<!-- Creator: CorelDRAW X7 -->
<svg xmlns="http://www.w3.org/2000/svg" xml:space="preserve" width="19.8125in" height="3.79167in" version="1.0" style="shape-rendering:geometricPrecision; text-rendering:geometricPrecision; image-rendering:optimizeQuality; fill-rule:evenodd; clip-rule:evenodd"
viewBox="0 0 2067 396"
 xmlns:xlink="http://www.w3.org/1999/xlink">
 <defs>
  <style type="text/css">
   <![CDATA[
    .fil0 {fill:#2C81F6;fill-opacity:0.458824}
    .fil1 {fill:#2C81F6}
   ]]>
  </style>
 </defs>
 <g id="Layer_x0020_1">
  <metadata id="CorelCorpID_0Corel-Layer"/>
  <g id="_2490950399120">
   <path class="fil0" d="M0 217c0,0 559,109 741,-6 283,-195 507,208 708,6 201,-202 290,-236 412,-209 122,28 145,96 199,116l2 264 -1678 -3 -384 -33 0 -135z"/>
   <path class="fil1" d="M0 306c0,0 176,25 358,-90 283,-195 474,239 676,37 201,-202 366,-268 517,-220 151,48 350,217 516,62l0 300 -2067 1 0 -90z"/>
  </g>
 </g>
</svg>
