<?xml version="1.0" encoding="UTF-8"?>
<!DOCTYPE svg PUBLIC "-//W3C//DTD SVG 1.0//EN" "http://www.w3.org/TR/2001/REC-SVG-20010904/DTD/svg10.dtd">
<!-- Creator: CorelDRAW X7 -->
<svg xmlns="http://www.w3.org/2000/svg" xml:space="preserve" width="1.2697in" height="0.24048in" version="1.0" style="shape-rendering:geometricPrecision; text-rendering:geometricPrecision; image-rendering:optimizeQuality; fill-rule:evenodd; clip-rule:evenodd"
viewBox="0 0 4206 797"
 xmlns:xlink="http://www.w3.org/1999/xlink">
 <defs>
  <style type="text/css">
   <![CDATA[
    .fil0 {fill:#FEFEFE;fill-rule:nonzero}
    .fil1 {fill:url(#id0)}
   ]]>
  </style>
  <linearGradient id="id0" gradientUnits="userSpaceOnUse" x1="3852.64" y1="619.944" x2="4205.96" y2="619.944">
   <stop offset="0" style="stop-opacity:1; stop-color:#FE826A"/>
   <stop offset="1" style="stop-opacity:1; stop-color:#FE7291"/>
  </linearGradient>
 </defs>
 <g id="Layer_x0020_1">
  <metadata id="CorelCorpID_0Corel-Layer"/>
  <g id="_2721315722272">
   <path class="fil0" d="M0 782l0 -771 156 0 0 771 -156 0z"/>
   <path id="1" class="fil0" d="M276 130l0 -119 571 0 0 119 -209 0 0 652 -154 0 0 -652 -208 0z"/>
   <path id="2" class="fil0" d="M1487 578c44,-46 65,-107 65,-184 0,-76 -21,-137 -65,-183 -43,-46 -100,-69 -170,-69 -70,0 -126,23 -170,69 -44,46 -66,108 -66,184 0,76 22,137 66,183 44,46 100,69 170,69 70,0 127,-23 170,-69zm-170 211c-111,0 -204,-37 -280,-111 -76,-74 -114,-169 -114,-283 0,-115 38,-209 114,-283 77,-75 170,-112 281,-112 111,0 204,37 280,112 76,74 113,168 113,283 0,114 -37,209 -113,283 -76,74 -170,111 -281,111z"/>
   <path id="3" class="fil0" d="M1789 130l0 -119 571 0 0 119 -209 0 0 652 -155 0 0 -652 -207 0z"/>
   <path id="4" class="fil0" d="M2924 9l0 119 -289 0 0 202 256 0 0 119 -256 0 0 214 289 0 0 119 -445 0 0 -773 445 0z"/>
   <path id="5" class="fil0" d="M3239 782l-156 0 0 -771 156 0 0 345 278 -345 203 0 -335 387 335 384 -202 0 -279 -343 0 343z"/>
   <circle class="fil1" cx="4029" cy="620" r="177"/>
  </g>
 </g>
</svg>
